# This file uses centimeters as units for non-parametric coordinates.

mtllib cylinder2.mtl
g default
v 0.000000 -0.174647 -0.559842
v 0.000000 0.174647 -0.559842
v 0.214242 -0.174647 -0.517227
v 0.214242 0.174647 -0.517227
v 0.395869 -0.174647 -0.395869
v 0.395869 0.174647 -0.395869
v 0.517227 -0.174647 -0.214242
v 0.517227 0.174647 -0.214242
v 0.559842 -0.174647 0.000000
v 0.559842 0.174647 0.000000
v 0.517227 -0.174647 0.214242
v 0.517227 0.174647 0.214242
v 0.395869 -0.174647 0.395869
v 0.395869 0.174647 0.395869
v 0.214242 -0.174647 0.517227
v 0.214242 0.174647 0.517227
v 0.000000 -0.174647 0.559842
v 0.000000 0.174647 0.559842
v -0.214242 -0.174647 0.517227
v -0.214242 0.174647 0.517227
v -0.395869 -0.174647 0.395869
v -0.395869 0.174647 0.395869
v -0.517227 -0.174647 0.214242
v -0.517227 0.174647 0.214242
v -0.559842 -0.174647 0.000000
v -0.559842 0.174647 0.000000
v -0.517227 -0.174647 -0.214242
v -0.517227 0.174647 -0.214242
v -0.395869 -0.174647 -0.395869
v -0.395869 0.174647 -0.395869
v -0.214242 -0.174647 -0.517227
v -0.214242 0.174647 -0.517227
vt 1.000000 0.500000
vt 1.000000 1.000000
vt 0.937500 1.000000
vt 0.937500 0.500000
vt 0.875000 1.000000
vt 0.875000 0.500000
vt 0.812500 1.000000
vt 0.812500 0.500000
vt 0.750000 1.000000
vt 0.750000 0.500000
vt 0.687500 1.000000
vt 0.687500 0.500000
vt 0.625000 1.000000
vt 0.625000 0.500000
vt 0.562500 1.000000
vt 0.562500 0.500000
vt 0.500000 1.000000
vt 0.500000 0.500000
vt 0.437500 1.000000
vt 0.437500 0.500000
vt 0.375000 1.000000
vt 0.375000 0.500000
vt 0.312500 1.000000
vt 0.312500 0.500000
vt 0.250000 1.000000
vt 0.250000 0.500000
vt 0.187500 1.000000
vt 0.187500 0.500000
vt 0.125000 1.000000
vt 0.125000 0.500000
vt 0.062500 1.000000
vt 0.062500 0.500000
vt 0.000000 1.000000
vt 0.000000 0.500000
vn 0.195097 0.000000 -0.980784
vn 0.195097 0.000000 -0.980784
vn 0.195097 0.000000 -0.980784
vn 0.195097 0.000000 -0.980784
vn 0.555577 0.000000 -0.831465
vn 0.555577 0.000000 -0.831465
vn 0.555577 0.000000 -0.831465
vn 0.555577 0.000000 -0.831465
vn 0.831465 0.000000 -0.555577
vn 0.831465 0.000000 -0.555577
vn 0.831465 0.000000 -0.555577
vn 0.831465 0.000000 -0.555577
vn 0.980784 0.000000 -0.195097
vn 0.980784 0.000000 -0.195097
vn 0.980784 0.000000 -0.195097
vn 0.980784 0.000000 -0.195097
vn 0.980784 0.000000 0.195097
vn 0.980784 0.000000 0.195097
vn 0.980784 0.000000 0.195097
vn 0.980784 0.000000 0.195097
vn 0.831465 0.000000 0.555577
vn 0.831465 0.000000 0.555577
vn 0.831465 0.000000 0.555577
vn 0.831465 0.000000 0.555577
vn 0.555577 0.000000 0.831465
vn 0.555577 0.000000 0.831465
vn 0.555577 0.000000 0.831465
vn 0.555577 0.000000 0.831465
vn 0.195097 0.000000 0.980784
vn 0.195097 0.000000 0.980784
vn 0.195097 0.000000 0.980784
vn 0.195097 0.000000 0.980784
vn -0.195097 0.000000 0.980784
vn -0.195097 0.000000 0.980784
vn -0.195097 0.000000 0.980784
vn -0.195097 0.000000 0.980784
vn -0.555577 0.000000 0.831465
vn -0.555577 0.000000 0.831465
vn -0.555577 0.000000 0.831465
vn -0.555577 0.000000 0.831465
vn -0.831465 0.000000 0.555577
vn -0.831465 0.000000 0.555577
vn -0.831465 0.000000 0.555577
vn -0.831465 0.000000 0.555577
vn -0.980784 0.000000 0.195097
vn -0.980784 0.000000 0.195097
vn -0.980784 0.000000 0.195097
vn -0.980784 0.000000 0.195097
vn -0.980784 0.000000 -0.195097
vn -0.980784 0.000000 -0.195097
vn -0.980784 0.000000 -0.195097
vn -0.980784 0.000000 -0.195097
vn -0.831465 0.000000 -0.555577
vn -0.831465 0.000000 -0.555577
vn -0.831465 0.000000 -0.555577
vn -0.831465 0.000000 -0.555577
vn -0.555577 0.000000 -0.831465
vn -0.555577 0.000000 -0.831465
vn -0.555577 0.000000 -0.831465
vn -0.555577 0.000000 -0.831465
vn -0.195097 0.000000 -0.980784
vn -0.195097 0.000000 -0.980784
vn -0.195097 0.000000 -0.980784
vn -0.195097 0.000000 -0.980784
s off
g Mesh
usemtl None
f 1/1/1 2/2/2 4/3/3 3/4/4
f 3/4/5 4/3/6 6/5/7 5/6/8
f 5/6/9 6/5/10 8/7/11 7/8/12
f 7/8/13 8/7/14 10/9/15 9/10/16
f 9/10/17 10/9/18 12/11/19 11/12/20
f 11/12/21 12/11/22 14/13/23 13/14/24
f 13/14/25 14/13/26 16/15/27 15/16/28
f 15/16/29 16/15/30 18/17/31 17/18/32
f 17/18/33 18/17/34 20/19/35 19/20/36
f 19/20/37 20/19/38 22/21/39 21/22/40
f 21/22/41 22/21/42 24/23/43 23/24/44
f 23/24/45 24/23/46 26/25/47 25/26/48
f 25/26/49 26/25/50 28/27/51 27/28/52
f 27/28/53 28/27/54 30/29/55 29/30/56
f 29/30/57 30/29/58 32/31/59 31/32/60
f 31/32/61 32/31/62 2/33/63 1/34/64
