# This file uses centimeters as units for non-parametric coordinates.

mtllib cylinder3.mtl
g default
v 0.000000 -0.835819 -0.365449
v 0.000000 0.835819 -0.365449
v 0.139851 -0.835819 -0.337631
v 0.139851 0.835819 -0.337631
v 0.258412 -0.835819 -0.258412
v 0.258412 0.835819 -0.258412
v 0.337631 -0.835819 -0.139851
v 0.337631 0.835819 -0.139851
v 0.365449 -0.835819 0.000000
v 0.365449 0.835819 0.000000
v 0.337631 -0.835819 0.139851
v 0.337631 0.835819 0.139851
v 0.258412 -0.835819 0.258412
v 0.258412 0.835819 0.258412
v 0.139851 -0.835819 0.337631
v 0.139851 0.835819 0.337631
v 0.000000 -0.835819 0.365449
v 0.000000 0.835819 0.365449
v -0.139851 -0.835819 0.337631
v -0.139851 0.835819 0.337631
v -0.258412 -0.835819 0.258412
v -0.258412 0.835819 0.258412
v -0.337631 -0.835819 0.139851
v -0.337631 0.835819 0.139851
v -0.365449 -0.835819 0.000000
v -0.365449 0.835819 0.000000
v -0.337631 -0.835819 -0.139851
v -0.337631 0.835819 -0.139851
v -0.258412 -0.835819 -0.258412
v -0.258412 0.835819 -0.258412
v -0.139851 -0.835819 -0.337631
v -0.139851 0.835819 -0.337631
v 0.258412 0.470394 0.197049
v 0.337631 0.470394 0.078489
v 0.365449 0.470394 -0.061362
v 0.337631 0.470394 -0.201213
v 0.258412 0.470394 -0.319774
v 0.139851 0.470394 -0.398993
v 0.000000 0.470394 -0.426811
v -0.139851 0.470394 -0.398993
v -0.258412 0.470394 -0.319774
v -0.337631 0.470394 -0.201213
v -0.365449 0.470394 -0.061362
v -0.337631 0.470394 0.078489
v -0.258412 0.470394 0.197049
v -0.139851 0.470394 0.276268
v 0.000000 0.470394 0.304086
v 0.139851 0.470394 0.276268
v 0.258412 0.044073 0.172505
v 0.337631 0.044073 0.053945
v 0.365449 0.044073 -0.085906
v 0.337631 0.044073 -0.225757
v 0.258412 0.044073 -0.344318
v 0.139851 0.044073 -0.423537
v 0.000000 0.044073 -0.451355
v -0.139851 0.044073 -0.423537
v -0.258412 0.044073 -0.344318
v -0.337631 0.044073 -0.225757
v -0.365449 0.044073 -0.085906
v -0.337631 0.044073 0.053945
v -0.258412 0.044073 0.172505
v -0.139851 0.044073 0.251724
v 0.000000 0.044073 0.279542
v 0.139851 0.044073 0.251724
vt 1.000000 0.500000
vt 1.000000 1.000000
vt 0.937500 1.000000
vt 0.937500 0.500000
vt 0.875000 1.000000
vt 0.875000 0.500000
vt 0.812500 1.000000
vt 0.812500 0.500000
vt 0.750000 1.000000
vt 0.750000 0.500000
vt 0.687500 1.000000
vt 0.687500 0.500000
vt 0.625000 1.000000
vt 0.625000 0.500000
vt 0.562500 1.000000
vt 0.562500 0.500000
vt 0.500000 1.000000
vt 0.500000 0.500000
vt 0.437500 1.000000
vt 0.437500 0.500000
vt 0.375000 1.000000
vt 0.375000 0.500000
vt 0.312500 1.000000
vt 0.312500 0.500000
vt 0.250000 1.000000
vt 0.250000 0.500000
vt 0.187500 1.000000
vt 0.187500 0.500000
vt 0.125000 1.000000
vt 0.125000 0.500000
vt 0.062500 1.000000
vt 0.062500 0.500000
vt 0.000000 1.000000
vt 0.000000 0.500000
vt 0.625000 0.890698
vt 0.687500 0.890698
vt 0.750000 0.890698
vt 0.812500 0.890698
vt 0.875000 0.890698
vt 0.937500 0.890698
vt 1.000000 0.890698
vt 0.000000 0.890698
vt 0.062500 0.890698
vt 0.125000 0.890698
vt 0.187500 0.890698
vt 0.250000 0.890698
vt 0.312500 0.890698
vt 0.375000 0.890698
vt 0.437500 0.890698
vt 0.500000 0.890698
vt 0.562500 0.890698
vt 0.625000 0.763183
vt 0.687500 0.763183
vt 0.750000 0.763183
vt 0.812500 0.763183
vt 0.875000 0.763183
vt 0.937500 0.763183
vt 1.000000 0.763183
vt 0.000000 0.763183
vt 0.062500 0.763183
vt 0.125000 0.763183
vt 0.187500 0.763183
vt 0.250000 0.763183
vt 0.312500 0.763183
vt 0.375000 0.763183
vt 0.437500 0.763183
vt 0.500000 0.763183
vt 0.562500 0.763183
vn 0.194006 0.105209 -0.975342
vn 0.195097 0.000000 -0.980784
vn 0.195097 0.000000 -0.980784
vn 0.193981 0.106425 -0.975215
vn 0.553395 0.088355 -0.828219
vn 0.555577 0.000000 -0.831465
vn 0.555577 0.000000 -0.831465
vn 0.553247 0.091308 -0.827998
vn 0.830040 0.058653 -0.554612
vn 0.831465 0.000000 -0.555577
vn 0.831465 0.000000 -0.555577
vn 0.829890 0.061629 -0.554512
vn 0.980579 0.020528 -0.195048
vn 0.980784 0.000000 -0.195097
vn 0.980784 0.000000 -0.195097
vn 0.980553 0.021768 -0.195043
vn 0.980579 -0.020528 0.195048
vn 0.980784 0.000000 0.195097
vn 0.980784 0.000000 0.195097
vn 0.980553 -0.021768 0.195043
vn 0.830040 -0.058653 0.554612
vn 0.831465 0.000000 0.555577
vn 0.831465 0.000000 0.555577
vn 0.829890 -0.061629 0.554512
vn 0.553247 -0.091308 0.827998
vn 0.553395 -0.088355 0.828219
vn 0.555577 0.000000 0.831465
vn 0.555577 0.000000 0.831465
vn 0.194006 -0.105209 0.975342
vn 0.195097 0.000000 0.980784
vn 0.195097 0.000000 0.980784
vn 0.193981 -0.106425 0.975215
vn -0.193981 -0.106425 0.975215
vn -0.195097 0.000000 0.980784
vn -0.195097 0.000000 0.980784
vn -0.194006 -0.105209 0.975342
vn -0.553247 -0.091308 0.827998
vn -0.555577 0.000000 0.831465
vn -0.555577 0.000000 0.831465
vn -0.553395 -0.088355 0.828219
vn -0.829890 -0.061629 0.554512
vn -0.831465 0.000000 0.555577
vn -0.831465 0.000000 0.555577
vn -0.830040 -0.058653 0.554612
vn -0.980553 -0.021768 0.195043
vn -0.980784 0.000000 0.195097
vn -0.980784 0.000000 0.195097
vn -0.980579 -0.020528 0.195048
vn -0.980553 0.021768 -0.195043
vn -0.980784 0.000000 -0.195097
vn -0.980784 0.000000 -0.195097
vn -0.980579 0.020528 -0.195048
vn -0.829890 0.061629 -0.554512
vn -0.831465 0.000000 -0.555577
vn -0.831465 0.000000 -0.555577
vn -0.830040 0.058653 -0.554612
vn -0.553247 0.091308 -0.827998
vn -0.555577 0.000000 -0.831465
vn -0.555577 0.000000 -0.831465
vn -0.553395 0.088355 -0.828219
vn -0.193981 0.106425 -0.975215
vn -0.195097 0.000000 -0.980784
vn -0.195097 0.000000 -0.980784
vn -0.194006 0.105209 -0.975342
vn 0.831195 0.025747 0.555384
vn 0.831181 0.026409 0.555374
vn 0.980746 0.009021 0.195081
vn 0.980743 0.009296 0.195081
vn 0.980746 -0.009021 -0.195081
vn 0.980743 -0.009296 -0.195080
vn 0.831195 -0.025747 -0.555384
vn 0.831181 -0.026409 -0.555374
vn 0.555152 -0.038692 -0.830848
vn 0.555138 -0.039352 -0.830827
vn 0.194884 -0.045888 -0.979752
vn 0.194881 -0.046161 -0.979740
vn -0.194881 -0.046161 -0.979740
vn -0.194884 -0.045888 -0.979752
vn -0.555138 -0.039352 -0.830827
vn -0.555152 -0.038692 -0.830848
vn -0.831181 -0.026409 -0.555374
vn -0.831195 -0.025747 -0.555384
vn -0.980743 -0.009296 -0.195080
vn -0.980746 -0.009021 -0.195081
vn -0.980743 0.009296 0.195081
vn -0.980746 0.009021 0.195081
vn -0.831181 0.026409 0.555374
vn -0.831195 0.025747 0.555384
vn -0.555138 0.039352 0.830827
vn -0.555152 0.038692 0.830848
vn -0.194881 0.046161 0.979740
vn -0.194883 0.045888 0.979752
vn 0.194883 0.045888 0.979752
vn 0.194881 0.046161 0.979740
vn 0.555138 0.039352 0.830827
vn 0.555152 0.038692 0.830848
vn 0.831465 0.000000 0.555577
vn 0.831465 0.000000 0.555577
vn 0.980784 0.000000 0.195097
vn 0.980784 0.000000 0.195097
vn 0.980784 0.000000 -0.195097
vn 0.980784 0.000000 -0.195097
vn 0.831465 0.000000 -0.555577
vn 0.831465 0.000000 -0.555577
vn 0.555577 0.000000 -0.831465
vn 0.555577 0.000000 -0.831465
vn 0.194201 -0.095321 -0.976320
vn 0.195097 0.000000 -0.980784
vn -0.195097 0.000000 -0.980784
vn -0.195097 0.000000 -0.980784
vn -0.555577 0.000000 -0.831465
vn -0.555577 0.000000 -0.831465
vn -0.831465 0.000000 -0.555577
vn -0.831465 0.000000 -0.555577
vn -0.980784 0.000000 -0.195097
vn -0.980784 0.000000 -0.195097
vn -0.980784 0.000000 0.195097
vn -0.980784 0.000000 0.195097
vn -0.831465 0.000000 0.555577
vn -0.831465 0.000000 0.555577
vn -0.555577 0.000000 0.831465
vn -0.555577 0.000000 0.831465
vn -0.195097 0.000000 0.980784
vn -0.195097 0.000000 0.980784
vn 0.195097 0.000000 0.980784
vn 0.195097 0.000000 0.980784
vn 0.555577 0.000000 0.831465
vn 0.555577 0.000000 0.831465
s 1
g Mesh
usemtl None
f 39/41/1 2/2/2 4/3/3 38/40/4
s 2
f 38/40/5 4/3/6 6/5/7 37/39/8
s 3
f 37/39/9 6/5/10 8/7/11 36/38/12
s 4
f 36/38/13 8/7/14 10/9/15 35/37/16
s 5
f 35/37/17 10/9/18 12/11/19 34/36/20
s 6
f 34/36/21 12/11/22 14/13/23 33/35/24
s 7
f 48/51/25 33/35/26 14/13/27 16/15/28
s 8
f 48/51/29 16/15/30 18/17/31 47/50/32
s 9
f 47/50/33 18/17/34 20/19/35 46/49/36
s 10
f 46/49/37 20/19/38 22/21/39 45/48/40
s 11
f 45/48/41 22/21/42 24/23/43 44/47/44
s 12
f 44/47/45 24/23/46 26/25/47 43/46/48
s 13
f 43/46/49 26/25/50 28/27/51 42/45/52
s 14
f 42/45/53 28/27/54 30/29/55 41/44/56
s 15
f 41/44/57 30/29/58 32/31/59 40/43/60
s 16
f 40/43/61 32/31/62 2/33/63 39/42/64
s 6
f 50/53/65 34/36/21 33/35/24 49/52/66
s 5
f 51/54/67 35/37/17 34/36/20 50/53/68
s 4
f 52/55/69 36/38/13 35/37/16 51/54/70
s 3
f 53/56/71 37/39/9 36/38/12 52/55/72
s 2
f 54/57/73 38/40/5 37/39/8 53/56/74
s 1
f 55/58/75 39/41/1 38/40/4 54/57/76
s 16
f 56/60/77 40/43/61 39/42/64 55/59/78
s 15
f 57/61/79 41/44/57 40/43/60 56/60/80
s 14
f 58/62/81 42/45/53 41/44/56 57/61/82
s 13
f 59/63/83 43/46/49 42/45/52 58/62/84
s 12
f 60/64/85 44/47/45 43/46/48 59/63/86
s 11
f 61/65/87 45/48/41 44/47/44 60/64/88
s 10
f 62/66/89 46/49/37 45/48/40 61/65/90
s 9
f 63/67/91 47/50/33 46/49/36 62/66/92
s 8
f 64/68/93 48/51/29 47/50/32 63/67/94
s 7
f 64/68/95 49/52/96 33/35/26 48/51/25
s 6
f 50/53/65 49/52/66 13/14/97 11/12/98
s 5
f 51/54/67 50/53/68 11/12/99 9/10/100
s 4
f 52/55/69 51/54/70 9/10/101 7/8/102
s 3
f 53/56/71 52/55/72 7/8/103 5/6/104
s 2
f 54/57/73 53/56/74 5/6/105 3/4/106
s 1
f 1/1/107 55/58/75 54/57/76 3/4/108
s 16
f 56/60/77 55/59/78 1/34/109 31/32/110
s 15
f 57/61/79 56/60/80 31/32/111 29/30/112
s 14
f 58/62/81 57/61/82 29/30/113 27/28/114
s 13
f 59/63/83 58/62/84 27/28/115 25/26/116
s 12
f 60/64/85 59/63/86 25/26/117 23/24/118
s 11
f 61/65/87 60/64/88 23/24/119 21/22/120
s 10
f 62/66/89 61/65/90 21/22/121 19/20/122
s 9
f 63/67/91 62/66/92 19/20/123 17/18/124
s 8
f 64/68/93 63/67/94 17/18/125 15/16/126
s 7
f 49/52/96 64/68/95 15/16/127 13/14/128
